<svg xmlns="http://www.w3.org/2000/svg" xmlns:xlink="http://www.w3.org/1999/xlink" width="200" height="200" version="1.1" viewBox="0 0 200 200"><title>Artboard Copy 6@960w</title><desc>Created with Sketch.</desc><defs><radialGradient id="radialGradient-1" cx="90.867%" cy="10.959%" r="172.001%" fx="90.867%" fy="10.959%" gradientTransform="translate(0.908673,0.109586),rotate(140.172042),scale(1.000000,1.206725),translate(-0.908673,-0.109586)"><stop offset="0%" stop-color="#2F80F2"/><stop offset="99.966%" stop-color="#A942B5"/></radialGradient><radialGradient id="radialGradient-2" cx="0%" cy="2.148%" r="159.108%" fx="0%" fy="2.148%" gradientTransform="translate(0.000000,0.021481),rotate(46.320810),scale(1.000000,1.047856),translate(-0.000000,-0.021481)"><stop offset="0%" stop-color="#45F9DE"/><stop offset="100%" stop-color="#A942B5" stop-opacity="0"/></radialGradient><radialGradient id="radialGradient-3" cx="100%" cy="100%" r="96.044%" fx="100%" fy="100%" gradientTransform="translate(1.000000,1.000000),rotate(180.000000),scale(1.000000,0.514961),translate(-1.000000,-1.000000)"><stop offset="0%" stop-color="#E957C5"/><stop offset="100%" stop-color="#AC43B6" stop-opacity=".044"/><stop offset="100%" stop-color="#A942B5" stop-opacity="0"/></radialGradient><radialGradient id="radialGradient-4" cx="50%" cy="50%" r="57.652%" fx="50%" fy="50%" gradientTransform="translate(0.500000,0.500000),rotate(119.937813),scale(1.000000,1.499193),translate(-0.500000,-0.500000)"><stop offset="0%" stop-color="#000" stop-opacity=".185"/><stop offset="100%" stop-color="#101010"/></radialGradient><linearGradient id="linearGradient-5" x1="94.238%" x2="0%" y1="58.966%" y2="0%"><stop offset="0%" stop-color="#FFF" stop-opacity=".185"/><stop offset="100%" stop-color="#FFF"/></linearGradient></defs><g id="Artboard-Copy-6" fill="none" fill-rule="evenodd" stroke="none" stroke-width="1"><g id="Group"><rect id="Rectangle" width="200" height="200" x="0" y="0" fill="url(#radialGradient-1)" rx="16"/><rect id="Rectangle-Copy-2" width="200" height="200" x="0" y="0" fill="url(#radialGradient-2)" fill-opacity=".57" rx="16"/><rect id="Rectangle-Copy-3" width="200" height="200" x="0" y="0" fill="url(#radialGradient-3)" fill-opacity=".68" rx="16"/><rect id="Rectangle-Copy" width="200" height="200" x="0" y="0" fill="url(#radialGradient-4)" fill-opacity=".08" rx="16"/><rect id="Rectangle-Copy-4" width="200" height="200" x="0" y="0" fill="url(#linearGradient-5)" fill-opacity=".03" rx="16"/></g><polygon id="K" fill="#FFF" fill-rule="nonzero" points="70.4 170 70.4 108 129 170 161.6 170 161.6 168.4 94.2 97.8 156.4 30.8 156.4 30 123.6 30 70.4 89.2 70.4 30 44 30 44 170"/></g></svg>